<svg width="40" height="40" viewBox="0 0 40 40" fill="none" xmlns="http://www.w3.org/2000/svg">
<rect width="40" height="40" fill="#EFEFEF"/>
<path d="M13.4893 32V13.9189H17.6211V16.9324H17.8095C18.1391 15.8887 18.7041 15.0843 19.5046 14.5192C20.3129 13.9463 21.235 13.6599 22.2709 13.6599C22.5063 13.6599 22.7692 13.6717 23.0596 13.6952C23.3578 13.7109 23.605 13.7384 23.8012 13.7776V17.6976C23.6207 17.6348 23.3343 17.5798 22.9419 17.5327C22.5573 17.4778 22.1846 17.4503 21.8236 17.4503C21.0467 17.4503 20.3482 17.6191 19.7282 17.9565C19.1161 18.2861 18.6335 18.7452 18.2803 19.3338C17.9272 19.9224 17.7506 20.6012 17.7506 21.3703V32H13.4893Z" fill="black"/>
<path d="M30.0027 32H25.9917V28.0553H30.0027V32Z" fill="#FF5500"/>
</svg>
